/* XPM */
static char *_5cbe7c6511b43d3bb5707c4f8b252cdF3Zk2ObPMuaKogRM[] = {
/* columns rows colors chars-per-pixel */
"50 50 124 2 ",
"   c #353534",
".  c #393738",
"X  c #3C3C3C",
"o  c #403E3E",
"O  c #413F40",
"+  c #444444",
"@  c #494646",
"#  c #494748",
"$  c #4C4C4C",
"%  c #504E4E",
"&  c #52514F",
"*  c #514F50",
"=  c #545353",
"-  c #595656",
";  c #595856",
":  c #595758",
">  c #5C5C5C",
",  c #615E5E",
"<  c #61605F",
"1  c #615F60",
"2  c #646363",
"3  c #696666",
"4  c #696967",
"5  c #696768",
"6  c #6D6A6A",
"7  c #6C6C6A",
"8  c #6D6C6A",
"9  c #6D6D6B",
"0  c #6E6D6B",
"q  c #6D6B6C",
"w  c #6C6C6C",
"e  c #6D6D6D",
"r  c #6E6C6D",
"t  c #6E6E6C",
"y  c #6F6E6C",
"u  c #6F6F6D",
"i  c gray43",
"p  c #6F6F6F",
"a  c #6A6969",
"s  c #706C6D",
"d  c #726E6D",
"f  c #726E6F",
"g  c #706E6F",
"h  c #70706E",
"j  c #71716F",
"k  c #74706F",
"l  c #736F70",
"z  c #716F70",
"x  c gray44",
"c  c #717171",
"v  c #727071",
"b  c #727270",
"n  c #737270",
"m  c #737371",
"M  c #737172",
"N  c #727272",
"B  c gray45",
"V  c #757170",
"C  c #747371",
"Z  c #757172",
"A  c #747273",
"S  c #777372",
"D  c #747472",
"F  c #767573",
"G  c #757374",
"H  c #747474",
"J  c gray46",
"K  c #767475",
"L  c #767674",
"P  c #777674",
"I  c #777775",
"U  c #777576",
"Y  c #767676",
"T  c #777777",
"R  c #747373",
"E  c #787473",
"W  c #787775",
"Q  c #787677",
"!  c #787677",
"~  c #787876",
"^  c #797876",
"/  c #7C7877",
"(  c #797778",
")  c #797778",
"_  c gray47",
"`  c #797979",
"'  c #7A7A78",
"]  c #7B7A78",
"[  c gray48",
"{  c #7B7B7B",
"}  c #7C7879",
"|  c #7C7B79",
" . c #7C7C7A",
".. c #7C7C7C",
"X. c gray49",
"o. c #7E7E7C",
"O. c #7F7F7D",
"+. c #7E7E7E",
"@. c gray50",
"#. c #7B7B7B",
"$. c #807C7D",
"%. c #80807E",
"&. c #82817F",
"*. c #817F80",
"=. c #808080",
"-. c #818181",
";. c gray51",
":. c #838383",
">. c #848482",
",. c #858583",
"<. c gray52",
"1. c #868684",
"2. c #878785",
"3. c #868686",
"4. c gray53",
"5. c #848484",
"6. c #898987",
"7. c #888888",
"8. c gray54",
"9. c #8C8C8A",
"0. c #8D8D8D",
"q. c #8E8E8C",
"w. c #90908E",
"e. c #909090",
/* pixels */
"c w w c e e e e w w e > 2 ` w c c w ` w c w w e = w c e e c c c w c e 2 e = = X.4.= $ -.0.Y w $ e Y ",
"e 2 2 w 2 w 2 2 2 2 2 = > c 2 w e 2 w 2 w w 2 2 = w e 2 2 w 2 2 w 2 2 > 2 = = ` ` w = -.c ` > + = > ",
"w > 2 2 2 2 2 2 2 > 2 > 2 w > 2 w 2 2 > 2 2 2 > = 2 w 1 2 2 2 2 2 > 2 > 2 $ $ > > = = w 2 = 2 Y w > ",
"2 = 2 2 2 2 2 2 2 > > > 2 2 > 2 2 2 w 2 2 > > > = 2 2 > > w 2 2 2 2 2 > > $ = = c X.Y $ = 2 X.4.-.e ",
"> $ > > > = > > > = = = > > = > > > > > > > > > $ > > = > 2 > > > 2 = = > > ` w ` X.w 2 $ = 2 7.2 = ",
"= $ = $ $ + $ $ = = $ $ = $ $ = = $ X $ = = = $ $ = = $ = = $ + $ = $ = = $ w > = w w = > e e 2 > = ",
"c c c e e = c e e Y c e x e c c c 2 = e Y c c c e c e c H e 2 > c w Y c Y 2 2 e -.> > = 7.X.e = = = ",
"w e w w w $ c w 2 c e w w w e e w 2 = e e w w c w 2 2 e c 2 > > ` 2 c w e 2 > -.c 2 > $ = 2 = $ 2 Y ",
"2 w 2 2 > $ w 2 w > > w w 2 w 2 2 = = e > 2 1 w 2 w 2 2 w > = > e > > 2 2 e 2 = = > = > 2 > + $ X.7.",
"w w > > > = 2 > = 2 w > > 2 w 2 2 > = e > 2 > 2 2 2 2 2 2 2 > > e > 2 w 2 > 2 e c = > 7.X.e > = e c ",
"> > = > > = 2 > > w 2 > 2 > = > > > = 2 > 2 2 2 > > > > > > = = 2 > 2 2 2 > e 4.` 2 > X.w w > = 2 > ",
"$ = = $ $ + $ = = $ $ = = = $ = $ $ + = $ = = = $ $ = = $ $ $ + = = = $ = = w ` = 2 > = = > > 2 e > ",
"$ 2 2 $ = > w 2 = = w 2 > 2 2 2 2 2 > > > 2 > > $ = 2 2 > 2 2 > > 2 > = > = 2 w > 2 w 2 e > 2 ` -.Y ",
"2 -.` $ 2 4.e.` > = e c e Y e c Y Y c c Y c e e > w Y c c c Y c e e e e e = w c ` w ` Y Y 2 Y e 2 2 ",
"2 X.Y = 2 ` Y 2 $ $ = = w c > e 2 2 1 2 w 2 > 2 = w w 2 2 w 2 2 2 2 2 2 2 $ e w 2 > w > 2 2 c > 2 2 ",
"$ = > = w 2 > 2 2 -.Y $ > c = 2 w 5 2 2 w 2 > 2 = 2 2 > 2 w 2 2 2 2 2 > > = ` > > e w 2 2 2 > 2 > > ",
"< 2 ^ ,.4 = + 0 6.q.w < w < > > > 2 w = e 2 > 2 = 2 2 > > 2 2 2 2 w > > > = e > 2 > 2 w > 2 2 > < > ",
"w e F k < ; $ = c c 2 0 e = $ > = > > = > = = > $ = = = = > = = = > = = = $ > = = = > = = > > = = = ",
"w = > e 0 = 2  .w < & = > ; = $ = $ + $ = > = = = = = = > : $ + = $ = = = $ = = = = = + $ = = > = = ",
"> X.&.> $ < ,.0 2 ; = ; 2 Y  .0 Y 2 = c e ` c c Y c c c Y c > > ` w ` c Y c e c c Y e > w c e Y Y Y ",
"0 0 2 > ; + > > # $ 4 ` 0 < 4 k 2 > = Y 2 2 w e 2 2 w w e 2 = > c > e w w w 2 e e e 2 $ 2 e 2 w w w ",
"; 2 ; $ 2 e 0 = $ < 4.q.k 2 2 4 > > = c 2 2 2 2 2 2 w 2 w 2 = > e > 2 2 2 2 2 w w 2 2 $ w w 2 2 2 2 ",
"2 X.k = w w. .2 $ = 0 2 > w 2 2 > > $ w 2 2 2 > 2 2 2 2 2 > = > w > 2 2 2 2 2 2 2 > > $ 2 2 2 2 2 2 ",
"k ,.F > > k > c 2 = ; = ; > = > = > * 2 > = 2 2 > > > = > > = = 2 > 2 > 2 > > = > = > $ 2 > > 2 > < ",
"Y w $ - < & = > = | &.; $ & $ = $ $ + $ = = $ $ = $ $ = = = $ + * $ = = = $ $ = = $ $ $ $ $ $ $ = = ",
"& < > 2 4 2 < = % c ` , , 0 4 e 5 w w w w 2 2 w = > w w 2 w w e w 2 w 2 2 > 2 w w w w w w w w w > > ",
"0 < = > 2 2 3 > < 2 2 3 F F 3 0 e c c e e w 2 e = e Y e c c c Y e w w 2 2 = c e e e e e e e e w w w ",
"0 > ; 2 2 3 6 2 3 < 2 0 ^ k , 2 2 2 2 2 w 2 > > = w w > 2 2 > > w 2 2 2 2 = Y 2 2 2 2 2 2 2 2 > > > ",
"; 2 V 4 ; 2 6 < - < 6 2 < 2 > > w 2 2 2 w 2 2 2 = w 2 > 2 e 2 2 2 > > > > $ c > 2 w 5 2 2 w 2 1 > > ",
"< 2 6 < > 2 4 0 W 3 4 6 w 2 > 2 > 2 > > > > > > $ 2 2 > > 2 2 2 2 2 2 > 2 = w = > > 2 > > 2 > = > > ",
"2 - > 3 V E 3 k V ; ; < , = @ $ = = = = = = = = $ = = = = = = $ = = = $ $ $ = $ = = = $ * = = = $ $ ",
"E V d 2 6 k , , = 3 / 4 > 2 , ; > = $ = > 2 > > > > > > > > = $ > > 2 > > 2 > 2 > > > $ = > 2 2 2 2 ",
"6 2 , d d , 3 2 > 3 d 6 2 l $.c G 2 $ Y c ` X.c c e ` Y ` Y > 2 ` e ` c H c c ` c W q % G V G c c V ",
", , d | d > > V 6 > 2 , , 3 2 w 2 2 = c 2 > 2 2 2 > e 2 2 2 = > c > 2 > w w 2 2 w w 1 $ q 2 2 3 2 2 ",
"> w Y 2 5 c > 1 2 2 Y 2 > 6 , w > > $ e 2 2 2 2 2 2 e 2 2 2 = 2 2 > 2 2 w 2 w e 2 1 : $ 6 1 , 2 2 2 ",
"w > - 2 ( c 2 ( 1 3 Y q 2 5 , 2 > > = w 2 > 2 w 2 2 2 > > > = > 2 2 5 2 2 > > 2 2 2 > = w 2 2 3 > > ",
"2 2 > 2 q > , G 5 > = w 6 = = * > = $ > > > = = = = = = = = $ = 2 > = = 2 > > = = = = $ = = - - > > ",
", *.G 2 2 2 q 2 d 2 = 2 > $ 1 = + + + = = = $ = $ = = = > > = = = = = = = $ = = $ = = $ $ * = = = & ",
"l d q G ( G G W q l e 2 $ > X.5 + 2 4.-.w = 2 4.w c e e c c c c e c c e 2 $ > 2 : 2 2 2 > > > 2 2 2 ",
"d 2 w 2 1 w 1 1 w > 2 > @ 2 -.V $ 2 ` Y 2 $ + = > w 2 2 2 2 2 2 > 2 > > 2 = 2 2 = - 1 5 , - > 5 < < ",
"e > > > 2 > = 2 > = > = + $ > > $ > > > $ 2 2 > + > > > > > 2 > 2 > > > = + > > > > : > 1 2 > > < > ",
"2 $ = = > > = > > = > $ X $ = 2 w > $ $ 2 ` Y 2 $ > = = > > > = > > = = = + = = 6 % $ , > = = * < > ",
"= $ $ = = = $ = = $ = $ = w > e 2 = + . > 2 w = > > $ $ $ $ = $ = = = $ $ + $ $ > # = 2 > 2 q > = & ",
"+ X X + X . . + + X + X $ = $ $ = $ $ = > = $ + $ $ + X + + X . X X + X $ $ = $ > > 2 , * % * + > ; ",
"= = = > = + $ = = > = > $ $ 2 > $ + $ 2 2 = X + $ $ = = > = $ + > = > = > > > > # $ $ = = $ # > = $ ",
"= = = > $ + $ = = = = > $ $ 2 = + X . $ + X X = $ $ = = = $ + + > = > $ = $ $ + = > $ + = $ + = = $ ",
"$ $ $ $ + X $ $ $ $ + $ $ + $   + + $ +     # w > = = $ $ $ O $ $ + $ + $ $ $ $ $ > $ o @ $ + + $ @ ",
"+ $ + + + . + + + $ $ + + + + $   $ 2 = +   # = $ + $ + $ # . + $ X $ + $ + X $ @ @ % = % # $ $ = % ",
"+ X . . . . X + X + + . + = = $ + + + + $   X . . . . . . . .   + + X X + + + + o O + O $ + # O o $ ",
".             .     .   X $ $ X X .   X + . $ +                           . + + X X O . + O + .   + "
};
