/* XPM */
static char *_4488e8816094420f76ac34eef4e5aaa9RPmU4dtGplqs113[] = {
/* columns rows colors chars-per-pixel */
"50 50 229 2 ",
"   c #5E635C",
".  c #5C5E62",
"X  c #535C61",
"o  c #625F6A",
"O  c #5D6C6A",
"+  c #596867",
"@  c #5F7169",
"#  c #5C6D74",
"$  c #5D7274",
"%  c #5C7679",
"&  c #577579",
"*  c #496F72",
"=  c #656565",
"-  c #696666",
";  c #63656B",
":  c #6A656A",
">  c #646B6B",
",  c #6B6B6C",
"<  c #636A66",
"1  c #736E6D",
"2  c #776E69",
"3  c #64736E",
"4  c #6D736D",
"5  c #6D796F",
"6  c #73726E",
"7  c #7A726E",
"8  c #76786E",
"9  c #7B786F",
"0  c #636D73",
"q  c #6C6D74",
"w  c #676C79",
"e  c #736C73",
"r  c #7A6D73",
"t  c #776D77",
"y  c #647374",
"u  c #6C7373",
"i  c #6D7973",
"p  c #63747A",
"a  c #6D757A",
"s  c #6C7B7B",
"d  c #657879",
"f  c #747474",
"g  c #7A7474",
"h  c #757B75",
"j  c #7B7A75",
"k  c #74757A",
"l  c #7A757A",
"z  c #747C7B",
"x  c #7D7D7C",
"c  c #82767B",
"v  c #837D7D",
"b  c #8A7C7F",
"n  c #817373",
"m  c #69837C",
"M  c #748379",
"N  c #7C827D",
"B  c #82827E",
"V  c #6E7681",
"C  c #677C85",
"Z  c #737C83",
"A  c #7C7D82",
"S  c #787B86",
"D  c #837D82",
"F  c #897E82",
"G  c #837A85",
"H  c #937E83",
"J  c #5C8C8D",
"K  c #58878B",
"L  c #54918C",
"P  c #528E96",
"I  c #549794",
"U  c #6B8185",
"Y  c #6A8388",
"T  c #738384",
"R  c #7D8283",
"E  c #74848B",
"W  c #7C8E8B",
"Q  c #7B8488",
"!  c #69928D",
"~  c #6C8F92",
"^  c #668F93",
"/  c #798E92",
"(  c #6D9494",
")  c #679899",
"_  c #799596",
"`  c #58A198",
"'  c #78A29E",
"]  c #679DA8",
"[  c #7C96A5",
"{  c #6C9FB4",
"}  c #5EA7A9",
"|  c #67A7A7",
" . c #77A3A6",
".. c #68B0AC",
"X. c #78B3AD",
"o. c #66ACB4",
"O. c #64B2B4",
"+. c #6BB5B8",
"@. c #76B8B6",
"#. c #78C8C9",
"$. c #69DADC",
"%. c #79D9D6",
"&. c #78CDD5",
"*. c #67E4DE",
"=. c #73E5D4",
"-. c #76E2DA",
";. c #75DBE3",
":. c #75D7E6",
">. c #6EDBE2",
",. c #69E6E6",
"<. c #7AE5E4",
"1. c #72EBED",
"2. c #7BEBEC",
"3. c #77E7E7",
"4. c #6CEAF1",
"5. c #74ECF4",
"6. c #79E8F2",
"7. c #7AF2F3",
"8. c #838383",
"9. c #8A8484",
"0. c #848A85",
"q. c #898A86",
"w. c #84858B",
"e. c #8B8689",
"r. c #858A8B",
"t. c #8C8C8C",
"y. c #92858C",
"u. c #928C8D",
"i. c #869289",
"p. c #8D918C",
"a. c #92928D",
"s. c #93998F",
"d. c #858D92",
"f. c #8D8D92",
"g. c #8E8C99",
"h. c #948D93",
"j. c #9B8D93",
"k. c #948D9B",
"l. c #839393",
"z. c #8C9293",
"x. c #8D949A",
"c. c #88989D",
"v. c #919191",
"b. c #959595",
"n. c #929293",
"m. c #999395",
"M. c #949499",
"N. c #9D9B9D",
"B. c #989799",
"V. c #A2959C",
"C. c #9EA59F",
"Z. c #8DA09C",
"A. c #A4A39F",
"S. c #8998A2",
"D. c #999BA2",
"F. c #A39BA4",
"G. c #88A6A6",
"H. c #97A9A9",
"J. c #83B5B5",
"K. c #87B7BB",
"L. c #98B5B6",
"P. c #87B0AF",
"I. c #A3A3A3",
"U. c #ABAAAB",
"Y. c #A7A4A6",
"T. c #ABB8B7",
"R. c #B4B6B7",
"E. c #ABACB0",
"W. c #C6B8BE",
"Q. c #87C1BE",
"!. c #8BBDC1",
"~. c #BFBFC1",
"^. c #8CCBCA",
"/. c #97CCD5",
"(. c #89D5D3",
"). c #87D9D7",
"_. c #93D9DB",
"`. c #B7C8CD",
"'. c #BADEDE",
"]. c #83E6DC",
"[. c #88EADC",
"{. c #88DBE7",
"}. c #84ECE3",
"|. c #86E7E6",
" X c #93E9E9",
".X c #8BF1EC",
"XX c #85E9F2",
"oX c #99EDF3",
"OX c #87F5F7",
"+X c #93F4F3",
"@X c #9BF7F8",
"#X c #A9E7ED",
"$X c #B9E9EC",
"%X c #AAFBFF",
"&X c #A9F4F8",
"*X c #B4F4FE",
"=X c #BAFEFE",
"-X c #B6F5F7",
";X c #ADEFF2",
":X c #C9C7CA",
">X c #D3CDD5",
",X c #CBD7DC",
"<X c #D5D6D9",
"1X c #D6CBCF",
"2X c #DADEE4",
"3X c #C5DFE0",
"4X c #E9DCE5",
"5X c #C7E8EB",
"6X c #D1ECEE",
"7X c #D8E2E2",
"8X c #D4F2EC",
"9X c #D7EBF4",
"0X c #CAFAFE",
"qX c #C6F7F8",
"wX c #D3F4F5",
"eX c #D4FDFE",
"rX c #D8F9F9",
"tX c #C9ECF2",
"yX c #E7E6E7",
"uX c #E8F6EA",
"iX c #F1F1EF",
"pX c #E3FDFE",
"aX c #EBFFFF",
"sX c #E5F7F6",
"dX c #F3FEFE",
"fX c #FEFEFE",
"gX c #FCFEFE",
"hX c #F5F6F3",
"jX c #F5E8F1",
/* pixels */
"x 8.f f f f f f f f f f , f f x N h 8.a.p.p.p.p.p.u < = z z.i.r.x v v k d a x g f h g 2 h 4 4 4 x x ",
"x x f f l l x x x l 8.x x x x x 0.8.q.a.p.p.p.p.z.z , < l n.t.z.v v D A Q z l , u 4 g 7 x j h z x x ",
"8.8.x 8.8.q.n.n.n.t.n.b.n.n.b.b.z.f.h.j.z.f.n.h.f.z f f 9.m.h.e.n.a.h.h.n.b.A ; > u D c D D A x f f ",
"x x x 8.8.q.b.t.b.t.8.n.q.q.q.t.n.h.h.h.f.f.h.h.M.x , , D j.j.h.t.t.u.u.u.m.l . X 0 Q S A Q w.8.l f ",
"8.x x x x 8.t.q.8.t.n.t.N.b.I.n.q.t.t.t.l.d.u.u.e.v g g B q.t.u.t.q.t.u.j.j.F k Z U ~ ^ ~ Y S G l f ",
"x l 4 - - f l f l f f l iXgXgXY.1 f h f h h g g g D u.t.8.h h h N 8.0.B n n W.gXdXtX_.(.^.( Z 8.8.x ",
"8.x , - - , f f f f f f hXgXgXN., f g 6 g g 6 6 f r.b.z.N 4 4 i Q z m M B g :XgXdX0X%.-.).I Y R A x ",
"x x , = - , f f f l f x iXgXgXU.q l g 2 7 7 4 u y E _ _ E a i h R Q T M B 7 :XfXdXeX).].).) E R 8.8.",
"x l 8.8.8.x l x l 8.x f I.I.I.A 0 q r c j 0.<X7X5X/.#.).G.Z 8.A A l u h g 7 9.N.D.S.( ) ~ U z g x x ",
"8.8.f.n.n.q.8.x 8.x x x 8.f x , O ; e 9.j i.dXaXaX#X-.<.K.S G G t l l 6 2 7 6 , e w w p a f 6 6 j x ",
"x x t.p.n.8.x x 8.8.8.8.x x 8.f ; ; g 9.h i.dXdXaX#X-.<.K.E A G t k g 6 7 f f u k k k k g f 6 6 x 8.",
"x N t.t.t.q.8.q.x x x f x 8.x f , : g g h 0.T.:X`.K.+.@.[ V l x G x v v 8.B N 8.R 8.8.D v v B N f f ",
"8.8.t.t.n.t.t.n.q.f f f f f f f x f g f f u , > 0 0 0 d a q f j m.h.m.n.m.b.t.t.f.z.n.z.p.p.a.a.f - ",
"x x t.t.n.n.n.n.t.- l f f f f f - - u d d d Z k l l g r f f f f u.9.t.r.r.z.f.B.n.n.n.n.p.p.p.n.f - ",
"x x q.8.t.q.t.t.8.f l f f f f 8.q.z._ J L J C k f f g g i i k v A.N.H.Z.G.G.z.r.r.8.e.t.r.w.r.t.f , ",
"f f l f l x A 8.A 8.x x 8.A x <XgXdXqX(.|.(.C V k j b v i + ; A gXgXdX8XwXwXL.> z g g g f < ; - x x ",
"f f k f l A R R 8.l 8.x R R f >XfXdX=X%.3.%.K V q 8.v B f < O Q hXgXdXrXqXeXH.3 6 6 f f f , - : f 8.",
"u f f g l x A A l D l R R z T ,XdXpX%X*.,.$.P K C T x 8.g = + Q gXdXpXqX-X=XH.u g 7 f k f , - - x 8.",
"t.t.u.y.e.w.R z C.iXyX7X,X3X'.$X-X%XOX,.5.6.&.#.#.) Z G D D A g.9X0X=X.X2..XJ.Q y.y.u.f.r.r.0.q.6 - ",
"z.a.h.u.t.0.x h B.gXgXgXsXwXqX$X#XoXOX1.6.XX6.3.|.| Z G D G G k.9XqX%X3.*.-.K.d.h.j.h.z.z.z.p.s.f - ",
"p.p.u.u.p.0.B j C.dXdXdXrXeXeX0X;X&X+X.XXXXX2.<.].| E 8.8.8.D n.pX0X=X.X2.|.!._ x.m.n.z.z.p.a.a.g - ",
"0.8.9.9.8.R x g p.T.T.T.L.L.L.P.P.X.X...O.O.O.O.@.K d f g 6 6 x L.K.K.....| ( Z Q 8.R R R 8.9.9.x f ",
"M h x v 8.8.8.8.x : - q y # # p 3 @ y 0 & % $ p d 3 h h 4   = - > 3 a 0 y y u k f f f u f x N x 8.8.",
"M M c c z s U T A l G l e k S u h 6 g r k k e l g 1 , < @ + O + h 6 7 7 g g r f f f f q f x N x x 8.",
"N x V.F.H. .` | ( V e r c x f z i u g l c g g g 1 u.N.x.( L P J s 8 B 8 9 j j x f l l l z w.8.8.8.8.",
"j 8.4XgXaX;X-.].@.# o r j.m.p.M u a l v D 9.v 9.v <XgXdX-X).{._.c.u.p.p.a.a.q.t.n.n.n.n.t.n.t.h.h.t.",
"v v jXgXpX;X=.}.#.* # < q.q.p.j u a l D D B h M j yXfXaX*X;.1.&.[ k.r.b.n.a.n.n.f.t.t.n.p.m.h.m.f.t.",
"j 8.4XgXaX-X%.).J.& $ O 0.s.s.j f l l 8.j h 0.N z <XgXaX%X$.4.:.] [ [ / r.t.f.f.n.f.t.t.q.n.y.h.n.t.",
"8.x e.A Q E U ~ Z 0 z u u h g g f u , j g q.uXuXuXsXwX0X@X2.7.1.>.%.(.) s z s d k z h h l t.f.n.8.8.",
"l 8.f u f k e e f f f h f f e x h f g j , x hXgXdX8X5XqX@X|.2.5.4.,.].L y f a a k l g 6 g t.f.z.8.x ",
"l R f u u f g g 4 i 4 , g , t e k f 1 1 1 q.iXgXdXsXrXeX*XoXXXOX1.;.).! f n f 6 f f 6 6 h t.z.x.8.x ",
"8.x x z x x 9.B N 5 4 x ~.>X>XF.D 8.e.t.8.9.U.Y.H.H.S.S. .| | o.+.+.J./ F H 9.9.9.v j j h 8.R w.8.x ",
"x B v v B t.p.p.q.f f z sXgXgXR.e.m.h.h.b.t., , , < . . > d $ p l.W l.x.M.B.t.m.u.q.R N N N x x x 8.",
"R 8.9.v v 9.p.p.e.f g x sXdXgXW.e.h.f.t.n.t.f f 6 - = - 1 f f x u.a.t.f.w.d.r.W l.W z N N x l x x 8.",
"f f v D v 8.t.t.9.g g l :X1X1XY.9.q.r.r.r.0.x l x x g f l D D l q.t.q.U.R.T.L.X.X.' T 8.q.8.N 8.x f ",
", , x 8.x x B x j 8.x l g 1 f g N x R N x N x x l t.m.m.h.n.M.t.N M x yXgXaX-X%.|.^.c.h.u.a.p.p.f - ",
"O O z 8.R N B v B B h x g g f M N z N N x N N B 8.e.8.t.f.r.d.l.Z z l yXgXpX&X<.<.&.[ k.k.j.a.a.f - ",
"y > z R x x v v v x 8.N l , i M R x 8.x x x x x l B.N.N.D.c.S.c./ / / 6XaXeX@X$.1.:.{ [ S.w.t.a.f , ",
"D v l g f f f f f , h f x f l f g 6 g 6 f f f f f >XgXdXsX6X6X5X$X$X;X&XoX+X7.5.4.5.:.{./.~ d 4 x A ",
"v v g f f f f h f f l l u a k l g 1 g 1 g f f g f <XgXdXpXwXwXqX-X*X%XoX+XOX2.1.5.5.,.3.).K y h l 8.",
"B l l g j f i u u , e q % % p a g g 6 6 g g f g , <XgXdXsX6XwXqX*X*X%X&XoX&X X|.XX<.2.|._.J d u l x ",
"N x 8.8.e.x i u n.<X2X,X^.Q.!._ z j j j x l f f l b.M.x.`.pXpX0X XXX{.o.] ] | | } } } }  .( r.q.q.t.",
"x B t.a.j.F f > D.gXdXpX X=.}...m N N N B x g f 1 , q ; T.dXdXeX$.,.<.I & y C U Y E Z s s z.n.t.t.n.",
"x B t.a.j.b f > n.gXgXpX[.=.[.| m N N N N x g g l f l , E.gXdXeX|.3.].L d g A D A x v b N b.u.h.h.n.",
"D N 0.0.e.v z i n.:X:X`.J.@.@.( s z z z z h f g f g v g N.>X:X`.K.@.K.! x 9.v v 8.j j j h N v y.9.q.",
"G x R N 8.x N N x - : : % & & d a f u u f f f g 6 x 8.v x l e z / / _ l.f.m.9.x B j h 6 4 4 r r x x ",
"G D R z N x N N j g b r f s a z f g f f g f f g g x x v 8.8.8.q.z.z.d.z.f.h.e.B j N g f l l k g x x ",
"G x A x R l N x l f r r g f f l l l l l l z f f f x B x x B x x q.p.t.f.f.w.8.x x B 1 g l l f l x x ",
"g g f f f f f f f f g f - - - 8.n.u.u.t.n.t.R x x x R x x x v x B x 8.f k f f f g f f f l A A 8.x x ",
"f f f f f f f f f f f f - - - 8.n.t.t.t.n.t.8.x R x x x v x D v B x 8.f f f f f f f f f f x x 8.x x "
};
