/* XPM */
static char *_b2a9b14618442c88a6b8106b4723e52S85fJngwsNSedHrw[] = {
/* columns rows colors chars-per-pixel */
"50 50 239 2 ",
"   c #150000",
".  c #1C0201",
"X  c #190B07",
"o  c #1B120D",
"O  c #0B0D04",
"+  c #240201",
"@  c #2C0403",
"#  c #250905",
"$  c #2C0B05",
"%  c #2C0D0B",
"&  c #270809",
"*  c #340303",
"=  c #330A05",
"-  c #3B0A03",
";  c #340C0C",
":  c #3B0C0D",
">  c #380506",
",  c #2C120D",
"<  c #24120D",
"1  c #33130D",
"2  c #3A120C",
"3  c #330E11",
"4  c #3D0F11",
"5  c #2B1512",
"6  c #2D1A14",
"7  c #2D1C19",
"8  c #241514",
"9  c #341414",
"0  c #3B1413",
"q  c #341A14",
"w  c #3D1B14",
"e  c #331B1B",
"r  c #3B1C1B",
"t  c #3A161A",
"y  c #2A0E10",
"u  c #3D221C",
"i  c #3A241A",
"p  c #3C1D21",
"a  c #3A2523",
"s  c #430402",
"d  c #4A0A07",
"f  c #440D0B",
"g  c #4A0909",
"h  c #560A09",
"j  c #42120D",
"k  c #4D130B",
"l  c #421B0E",
"z  c #52120D",
"x  c #58160A",
"c  c #480E11",
"v  c #530E11",
"b  c #421414",
"n  c #4B1413",
"m  c #431C15",
"M  c #441619",
"N  c #441C1B",
"B  c #4B1C1B",
"V  c #4A1916",
"C  c #531414",
"Z  c #551C16",
"A  c #541A1A",
"S  c #5A1C1C",
"D  c #591916",
"F  c #671818",
"G  c #751D1A",
"H  c #44231C",
"J  c #4B231C",
"K  c #47291D",
"L  c #53231D",
"P  c #58251D",
"I  c #63241D",
"U  c #6F211F",
"Y  c #451C21",
"T  c #571F24",
"R  c #681C23",
"E  c #741E24",
"W  c #422423",
"Q  c #4C2523",
"!  c #442A24",
"~  c #4C2B23",
"^  c #452B2B",
"/  c #4B2B2B",
"(  c #4B252B",
")  c #542423",
"_  c #5B2323",
"`  c #532B24",
"'  c #5B2A24",
"]  c #522C2A",
"[  c #5D2D2B",
"{  c #552629",
"}  c #4A322A",
"|  c #54332C",
" . c #5B322D",
".. c #5C372C",
"X. c #5B2E31",
"o. c #562F33",
"O. c #4C3232",
"+. c #453534",
"@. c #543333",
"#. c #5C3533",
"$. c #543B36",
"%. c #5B3A34",
"&. c #5C3B3B",
"*. c #583A3B",
"=. c #632B2C",
"-. c #672627",
";. c #752628",
":. c #62342D",
">. c #64382B",
",. c #71372E",
"<. c #682E34",
"1. c #643434",
"2. c #6A3434",
"3. c #633B36",
"4. c #6B3A35",
"5. c #6C363A",
"6. c #643B3C",
"7. c #6C3C3C",
"8. c #633739",
"9. c #733434",
"0. c #743B3C",
"q. c #793A37",
"w. c #772D34",
"e. c #5B423B",
"r. c #64433C",
"t. c #6C423D",
"y. c #6A4639",
"u. c #73413D",
"i. c #77423A",
"p. c #573F40",
"a. c #6A3E41",
"s. c #723D42",
"d. c #7A3D42",
"f. c #5C4342",
"g. c #6B4343",
"h. c #684846",
"j. c #734443",
"k. c #7B4445",
"l. c #744945",
"z. c #7B4B45",
"x. c #724649",
"c. c #734B4C",
"v. c #7C4C4A",
"b. c #7B444A",
"n. c #7C534D",
"m. c #75554B",
"M. c #764D52",
"N. c #745353",
"B. c #7C5453",
"V. c #7B5A57",
"C. c #6E4F4C",
"Z. c #7C625A",
"A. c #873B39",
"S. c #802A2A",
"D. c #864139",
"F. c #8E412D",
"G. c #843C42",
"H. c #844C4B",
"J. c #874746",
"K. c #944849",
"L. c #83524D",
"P. c #895449",
"I. c #93524D",
"U. c #98534E",
"Y. c #864F53",
"T. c #845453",
"R. c #8D5453",
"E. c #8C5B54",
"W. c #855A5B",
"Q. c #8C5B5A",
"!. c #845858",
"~. c #935554",
"^. c #945A55",
"/. c #995B56",
"(. c #945B5B",
"). c #9B5C5B",
"_. c #985559",
"`. c #9B4E54",
"'. c #A45A58",
"]. c #A44F54",
"[. c #8B625C",
"{. c #85635A",
"}. c #936255",
"|. c #93635B",
" X c #9D625C",
".X c #97675A",
"XX c #A2675E",
"oX c #8B5D63",
"OX c #945D61",
"+X c #9A5C64",
"@X c #A75E63",
"#X c #8A6665",
"$X c #926363",
"%X c #9D6463",
"&X c #936B65",
"*X c #9C6B65",
"=X c #986A6B",
"-X c #99726B",
";X c #9C7774",
":X c #A36564",
">X c #A46B64",
",X c #A66B6B",
"<X c #AC6D6D",
"1X c #AB6865",
"2X c #B3696C",
"3X c #A47469",
"4X c #AD736B",
"5X c #A77669",
"6X c #B2746E",
"7X c #B66E73",
"8X c #AB7B74",
"9X c #A87877",
"0X c #B37474",
"qX c #B27C76",
"wX c #B47B7A",
"eX c #BB7D7C",
"rX c #BA7676",
"tX c #AE6D73",
"yX c #C17A79",
"uX c #A88279",
"iX c #BC837D",
"pX c #B48176",
"aX c #BF927F",
"sX c #C6877C",
"dX c #CD8D7D",
"fX c #BB7C85",
"gX c #A27F83",
"hX c #C47C82",
"jX c #B98884",
"kX c #B99287",
"lX c #A78480",
"zX c #C48783",
"xX c #CB958A",
"cX c #CE9190",
"vX c #DBA196",
"bX c #DBA387",
"nX c #E4A597",
"mX c #E8B1AA",
"MX c #E19F89",
/* pixels */
"4XpX4X>X/.^.).)././.I.I.1XsXsX>X .x.t.] ] ~ ] K K K J ' Z I G '.wX8X X^.'.J.9.0.:.L ' 1.%X_.@XrXrXwX",
"4X4X4X X^. X X X).^.P.P.>XsXsX3X7.g.[ B N J ~ ` K ~ J ' P I U '.wXpX>X).:XU.q.0.4.J l ' ,X<X2X2XrX0X",
"eXrXiX:X^.%XJ.0.H.R.(.^.^..X|.E.1.1.1.u.k.7.) ) ` ` ` ' P I F /.4X4X^.J.J.G.9.2.1. .` >.Q.R./.7X0X0X",
"6X1XeX).^.%X=.n * =.T.l.J @ + = L ' k.4XeX%X=.) L L B L n n g J.^.~.<.v v D C Z B  .#. .#.) 4.:X%X%X",
"hX0XzX:X+X%XT * = 6.&X[.~ .   = _ S q.rXzX2X-.-.' ' L ) V n f k.^.~.-.s g C C A Q  .....#. .t.*X%X%X",
"0X:X,X(.Q.Q.#.Y Q @.h.h./ , , w [ D 9.7XyX2XS -._ ) B Q M M b k._._.w.v C S A B ` 6.%.%.|  .6.&X%X%X",
"=.=.1.5.s.x.c.c.h./ q r W u a ~ ' D q.rXyX2Xv C f : @ ; + @ + #.b.d.T f c f * = b #. .` = = V T.T.T.",
"[  .#.7.6.6.c.V.#XO.# & r ! ! ~ ' D q.rXyX2Xg C n 0 $ % # # . *.M.k.{ b M b = : M 6.#.` = - V L.T.T.",
"|  .3.%.h.N.h.N.N./ 9 % N ] ( ) =.L i.rXrX).-.n ) 2 ,   5 X X $.c.6.] N 0 0 ; = B 1.2.=.> s P H.T.T.",
"y.y.r.~ ! ! , % t W o.o.x.$XOXQ.4.=.i.>X>X,X(.=XB.9 5 5 a a a e 3 0 0 1 q H Q J t.*X,XR.S -.-.2.1.1.",
"y.m.C.} ! ~ 1 # . N a.6.b.=X+XY.u.4.z.^.R.*X*XjXlXu 5 7 a ^ ^ # % r H r r ! ~ J z.qXeX).-.;.-.-.[ #.",
"y.y.y.H w H # . $ Q 6.1.b.,X:X~.' >.l.Q.|.9X&X9X#Xu 6 q e a O.q . @ 1 q i H H N z.,X0X'.-.-.-.9.1.%.",
"aXxXkX.X|.&Xn.y.t.1.1.[ H.wXtX%XL.T.T.|.E.n.N w / ^ O.$.C.x.M.c.B.c.B.{.V.%.H b u.:X2XU.F D I 4.#.@.",
"nXnXvXpX8XuX[.n.[.t. .:.Q.iX0X%XL.L.z.L.T.l.$ + & O.$.@.#XQ.OX(.R.v.!.;X-Xh.J m 4.<XrXU.D I -.:.3.&.",
"nXnXvXsXiXpXE.L.n.4.:.1.Q.jXwX3XQ.Q.T.Q.Q.l.@ @ + $.*.] T.Y._.J._.R.OX-X#Xr.m 2 i.>X<XU.I -.:.:.%.*.",
"A.D.P.P.}.}.z.l.l.7.1.' 4.E.L.u.L :.4.T.Q.l.= 0 9 B.&XQ.9X0XhX`.G.H.R.|.{.m.l.t.u.J.i.9.f = $ H r r ",
"- - - z.[.n.j.7.5.7.' 1.4.:.3.` j j V n.!.g.w w m 8X=XqXzXcXdX].D.D.L.[.{.Z.{.{.z._ =.{ + . X o < < ",
"f j : n.[.B.l.g.7.7.<.5.1.1.r.` m J  .[.{.g.0 ; m 9X8X0XsXcXsX'.J.J.z.n.n.V.V.!.v.1.7.) + . o 8 5 5 ",
"C n n v.!.B.g.6.6.1.1.6. .#.r.~ = = w %.%.@.W H N B.!.T.H./.J.I.~.).E.L.{.B.t.j.j.7.v.[ $ 3 5 5 % % ",
"v g n k.B.V.h.g.g.8.6.8.] | @.w $ + @ 9 , r / / / ] #.8.T A n P.>X4X(.z.L.j.' [ j.H.|.7.M M 0 @ ; ; ",
"g g C j.B.W.h.h.g.6.6.#.` | ] w . + & % 9 e / / *./ *.6.B M M $X8X8X(.k.H.d.=.2.l.T.$X7.B B j > = = ",
"R R =.v.B.V.@./ / o.8.[ 1.l.t.r.~ ..| q a W ^ ^ / @.h.6.0 N b 6.l.v.v.R.(.d._ ' [ 3.t.Q j n v D v z ",
"G.9.s.T.B.V.a , 3 Q o.{ b.OXR.%XuXkX&X~ | H u W p @.a.@.@ ; @ ; % w 1.(.(.w.c > 0 0 w = - f h ;.;.S.",
"d.2.s.B.V.Z.a % % ( X.T H.:X~.,X8XkX[.m | H w H Q #.#.#.; @ $ 9 q q 8.$XOX5.A V 0 1 q 1 - s s G G G ",
"7.1.c.&.h.f.^ 9 N T =.-.G.`.K.'.pX3X.X>.P :. .[ ) v.u.7.J 0 2 m 5 i &.c.T.7.: N 9 1 , w L P -.A.F.F.",
"x.8.%..   < ! 6.8.2.w.R E E F q.5X3X5X}.P.}.E.E.}.3X8X3XL.:.t.%.} a } W Q b + 0 ,     K xXxXcXnXMXbX",
"6.&.h.6 . . r 8.=.-.;.;.E E E K.4X3X5X.X}.XX.XXX X}.4X*Xz.' u.` K a ! r W N 9 Q % . . H xXzXyXnXbXbX",
"&.%.%., # # ] s.d.;.E ;.E F F q.3X.X}..X}..XP.P.P.4XpX4XH.4.l.3.%.e.} u ! u & % q ; @ J pXzXeXsXdXdX",
"m.c.g.Q Q  .$XwX7XJ.E E G h h x V m  .E.E.P.k s I xXnXxXE.z.z.&XuXuXm.%.e.*.^ ! B.jXcX%XA k z D x h ",
"6.l.l. .{ { OXeXyXK.F F F h x k 2 w | -X*XE.f * s vXmXmXE.z.4.8XjXjXm.| $.$.O.W x.fXcX:Xs C z s h h ",
"j.v.u.' ) S +XhX7XK.G ;.F k x - w 9 / &X$XL.f f P xXvXvXQ.v.l.9XwXiXn.} O.^ +.p W.zXcX2XC g d Z n n ",
"L [ ' L _ S _.1X2X].A.K.D.,.i.` @ & Y &X$X$X[ 7.2.E.E.|.u.1.6.v.u.L.J + , a *.*.o.5.-.R -.D Z 7.7.7.",
"H ~ K L ' Z U.1X1X'.J.I.J.0.t.] + + Y #X=X!.7.t.t.l.!.n.j.5.s.s.g.x.r . . a f.&.o.{ { B B L _ j.j.j.",
"~ ~ K l P Z /.1XXX^.J.H.z.6.6./ + . Y oX$XQ.7.t.t.n.V.B.g.s.b.s.M.C.( + . t &.@.%.Q ] ) J ) ) 7.l.x.",
"#. .3.b L j P.>X,X|.L.B.c.&.p.^ X X r V.Q.Y.5.2.7.!.!.W.g.6.x.( 3 t 3 & % a.9X;Xc.( ] ) b b V ` N r ",
"X.1.7.> > * H.8X*XQ.c.c.f.O.O.a X O e V.W.Y.0.0.j.$X$X-Xh.r.h.9 ; 3 3 $ @ 6.9X9XW.) J V @ @ - 2 q e ",
"2.<.5.> * : B.9X-X#XV.V.C.p.f.+.O O 7 N.!.Y.0.d.0.(.[.&Xr.e.e.! @ * * @ * 7.jXwX!.) J B = - : 2 5 6 ",
"+X_.+Xs.s.a.6.%.@.O.! +.a 7 a 8 o O 7 C.x.s.-._ _ 7.3.r.u ! i r.T.H.1.V f 1.$XE.H.[ :.4.1.4. .` O.+.",
"hXfXfX0X=X$XQ . , , , e , # 9 # X O 5 h.8.X.n f c B N H + $ + B.jXeXH._ A 9.~.H.z.7.u.j.T.[.l.6.*.&.",
"rXrXtX,XQ.&XQ # # $ % w ; @ : @     % 6.6.2.B M M B J J + @ . |.jXwXq.C D 9.R.H.k.u.u.7.T.[.t.3.&.p.",
"rXeXeX(.n.n.#.H H %.l.v.=.f v A X.#.#.[ j.8.; 0 ; ] ]  .B f C /.rX6Xq.z C 9./.).J._ [ ' l.n.l.] / ( ",
"eXiXwXE.v.B.y. ...&XjXzX~.F ;.A.,X=XY.2.5.] + . # r.3.j.4.-.w.`.1X4Xq.d d q.XX XH.j n ) c.c.%.% e e ",
"iXiXqXT.t.z.r...L |.jXzXJ.h F S.<X,XR.1.2.o.% # # e.%.7.2.w.A.].1X1X,.s d 9.:X,X0.* > ) g.N.r.r 7 7 ",
"*X*X*Xu...3.] Q ` E.qXrXK.F G ;.I.R.J._ ) { % . , } @. .P F F ].6X>X,.k Z ,.^.%XH.) [ #./ @.O.e 7 7 ",
" . . .2 @ ; @ @ @ 7.*X,XA.d h F 9.4.2.V b B ; + 9 r %. .n d s '.6X5X,.k Z q.~.R.Q.v.T.6.9 q 9 5 7 7 ",
"3.1. .0 @ ; $ @ + j.wXjXJ.d z I 4... .b 0 B 0 0 w w ~ m * * * I.qXpXi.- f i.%X(.T.T.B.6.9 9 y e 5 5 ",
"l.a.6.Q Y ( t 0 M g.W.Q.2.k Z L %.} | m : 0 > > ; 6.#.` J ` ' z.E.}.y.L P 4.H.k.k.x.6.#.t 9 y *./ ] ",
"$X$X=XoXoX=X!.M.c.6.N M J L ) b .   , , % 0 : : > =XQ.&X-X3X*Xy.l P 4.E.E.' j 0 M M 0 Y r p ^ gX9XwX",
").).).).+XOX!.c.N.@.r r N ) ) b . X o < , % ; = j (.(.|.>X5X5X>.m H 7.L.T...1 w w N p e a e / 9XwXwX",
"/./././.).(.T.c.N.@.r t N ) ) b . X o < < , % = f (.^./.>X3X5X>.u H 7.L.L..., q r p p e a e { 0X0X0X"
};
