/* XPM */
static char *_0348c5fe9024488b16ef02fd438a84c2fPuhhGUwCJq2WpE[] = {
/* columns rows colors chars-per-pixel */
"50 50 193 2 ",
"   c #040201",
".  c #0B0501",
"X  c #0F0A03",
"o  c #0C0B09",
"O  c #140704",
"+  c #140C04",
"@  c #190D03",
"#  c #130D0A",
"$  c #190E0A",
"%  c #161007",
"&  c #1C1205",
"*  c #16140B",
"=  c #1C140B",
"-  c #1D180C",
";  c #1F1511",
":  c #1D1A11",
">  c #230F00",
",  c #231404",
"<  c #2C1707",
"1  c #241905",
"2  c #2C1905",
"3  c #22160B",
"4  c #241A0C",
"5  c #2C1C0C",
"6  c #331D05",
"7  c #3B1D04",
"8  c #321E0B",
"9  c #251C12",
"0  c #2B1E12",
"q  c #341F12",
"w  c #2E210E",
"e  c #342007",
"r  c #3B2405",
"t  c #3C2806",
"y  c #34220D",
"u  c #3B250D",
"i  c #3D290E",
"p  c #272011",
"a  c #2D2213",
"s  c #2A2419",
"d  c #332413",
"f  c #3A2612",
"g  c #362816",
"h  c #3C2A14",
"j  c #322519",
"k  c #3B2518",
"l  c #352919",
"z  c #3C2B1A",
"x  c #3E311D",
"c  c #3E3121",
"v  c #472607",
"b  c #42260B",
"n  c #432A0D",
"m  c #4A2D0D",
"M  c #44300C",
"N  c #4C310E",
"B  c #553201",
"V  c #53330E",
"C  c #59350D",
"Z  c #5B390E",
"A  c #432C14",
"S  c #4A2E12",
"D  c #422E19",
"F  c #482E1A",
"G  c #463115",
"H  c #4C3215",
"J  c #4C3816",
"K  c #44321A",
"L  c #4C341A",
"P  c #4D381C",
"I  c #533514",
"U  c #5A3713",
"Y  c #543916",
"T  c #5B3A14",
"R  c #52361A",
"E  c #5B361B",
"W  c #573C1C",
"Q  c #553A1B",
"!  c #583B18",
"~  c #5B3B19",
"^  c #593919",
"/  c #593D1A",
"(  c #5B3D1B",
")  c #5C3D1A",
"_  c #5F3D19",
"`  c #5B3B1C",
"'  c #593B1E",
"]  c #5B3C1C",
"[  c #5A3D1E",
"{  c #5B3C1B",
"}  c #603A0D",
"|  c #6B3D0B",
" . c #623E17",
".. c #633D14",
"X. c #693C15",
"o. c #613E18",
"O. c #633E19",
"+. c #663F19",
"@. c #613E1C",
"#. c #623E1B",
"$. c #6A3E1B",
"%. c #433422",
"&. c #4D3922",
"*. c #4E3921",
"=. c #533C21",
"-. c #583A25",
";. c #5B3E21",
":. c #5A4015",
">. c #5E4117",
",. c #58401C",
"<. c #5F401D",
"1. c #5E411C",
"2. c #71450E",
"3. c #654317",
"4. c #684116",
"5. c #6C4316",
"6. c #6D4D16",
"7. c #60401C",
"8. c #66431D",
"9. c #64411E",
"0. c #64421C",
"q. c #684018",
"w. c #69431A",
"e. c #6C471A",
"r. c #68431F",
"t. c #6B441C",
"y. c #68471F",
"u. c #6B451C",
"i. c #67481E",
"p. c #69491D",
"a. c #6F481C",
"s. c #6E491D",
"d. c #704516",
"f. c #784717",
"g. c #714816",
"h. c #754916",
"j. c #7B4B15",
"k. c #72461B",
"l. c #734A1B",
"z. c #714B1E",
"x. c #724A1E",
"c. c #764E1E",
"v. c #744D1F",
"b. c #724B1C",
"n. c #7B4C1B",
"m. c #7F5117",
"M. c #73521E",
"N. c #7A511F",
"B. c #7D521C",
"V. c #574022",
"C. c #5E4726",
"Z. c #5D4221",
"A. c #614222",
"S. c #624323",
"D. c #664321",
"F. c #674520",
"G. c #644521",
"H. c #634422",
"J. c #6A4522",
"K. c #654D24",
"L. c #674923",
"P. c #684820",
"I. c #6C4A22",
"U. c #6E4C28",
"Y. c #744C22",
"T. c #784F21",
"R. c #794D22",
"E. c #724D29",
"W. c #725124",
"Q. c #755123",
"!. c #7C5223",
"~. c #7E5823",
"^. c #73512A",
"/. c #78562E",
"(. c #844D1A",
"). c #845214",
"_. c #84541B",
"`. c #8B541E",
"'. c #8F5A1E",
"]. c #935A1C",
"[. c #845524",
"{. c #895522",
"}. c #865925",
"|. c #8D5C25",
" X c #8B5A28",
".X c #955E28",
"XX c #995D2D",
"oX c #805830",
"OX c #8E6026",
"+X c #986325",
"@X c #A86C24",
"#X c #A1652A",
"$X c #B27727",
/* pixels */
"<.n , S H D y 6 6 t m m G K z h e H H H A A I R L y f H P L n e i O.r.D.G Y _ z.b.p./ H d G J Y Y I ",
") S 6 A S L i u G n n H D z z h u H R Y H S S L P h k f [ W G y u o.@.] K H Y c.c.p.[ L f f h M I / ",
"Y H A u A 7.S A C.G u H z d h z A Q / ,.I m v H *.c d 5 y.P.L d y ) ! Y K G G B.R.F.-.L i y 5 6 H 8.",
"I I R u A ` A D ! f 5 h d 9 2 r S m n 0 G Y A K K s 9 &  .o.A + $ 5./ R K f e s.z.y.f d K x h , H y.",
"I Y Q y f R L L Y f 5 h a 9 b m I I S 0 A H A z d d 4 + U _ R 4 4 e.<.R D i u w.8.! d d G z h 5 H w.",
"! Q I 4 5 A ;.S.J f 8 k a 9 g.l.S.8.[ x D A Q 8 O y 4 + N :.K.Q Q W.F.Q y n H _ I g l g f y y D I T ",
"A L W a d D I I [ A y K d 9 z.u.I T ! *.L D f A D h w & ! i.I.T U <.;.*.9 f Z b.7.D d d i f d 1 n U ",
"A L W d d j m V Q A e K j 9 Y.k.C T ~ ;.K f q z K h w = R 7.8.U U / R K s D T b.i.L f y i z k 1 i U ",
"Q Q Q h 0 + m U b 6 2 z d 0 $.f.).z.S.W f 5 y 3 $ a 4 * 2 8 i m I J.H h Z.R H 3.w.t.L h 5 k z w S ! ",
"I R R z 0 . ! t.n n f z 9 + k.n.e. .) Z.f y H f 5 d 0 : H U ) T U m i f ` R S I _ z.G d d h h L R I ",
"I H H h 9   @.R.m H K z = . f.n.0.U U S.A u W H i d 0 9 O.k.s.o.I r u h ~ R S m U b.A f f d f H.! I ",
"N H L y 3 o H ..V Y Q k 9 # ....U I I Q ` [ R n r k 4 . #.Y.w.) I y H Q u._ H Z U / Q L l d z e.I i ",
"H H H y 4 # n U I R L d 3 + u.d.} S A S ! ] H n e 0 = O I  .T S A H R [ I T i.H I 1.[ L 0 4 0 l.T S ",
"H H G y 4 + b I P F z d 3 + T.n.| A d 6 I ) m i d = = $ m V I 8 q S.,.W 8 Q Q.S H 1.[ K & o = l.~ H ",
"H H R + $ u I ! z 5 1 5 4 4 ] b.].C n y H R H f 0 4 a A i S ) A k Y t 6 k L ) ~ R z D d # y I `.w.I ",
"R R Q 3 4 S I Y j 4 & d a a [ z.'.Z m f S S f y 5 4 y S I I Q d a G i u d f n I S z h d o A  .n.w.T ",
"] [ W A A H I H s = % K k l Z.I.n.T N h n t = 4 5 a i B k.D.L 4 = y K L s = + 6 n L h w   I k.) )  .",
"4 f / 5 < 7 S S d = + h d d 5 S f.h.l.y.n 2 d 9 = X 5 ! @.] / 5 = f H L s 4 = o.I d p g / !.}.N H L ",
"+ y Q 5 < 7 I Y d = + f d a = u X.f.n.c.m 8 h 0 3 3 f ] ! ! ) d a A R R p 4 = k.) d 9 h [. X}.N G G ",
". 5 Q d a 8 w.z.u 3 % D d 4 9 d v $.b.j.U H K k d P.y...I I E ` ;.W H.H.d 4 , n.8.j 3 A #X'.f.R S u ",
"5 u I d d f 8.t.Q 5 + f L ! p 3 @ 5.n.5.w.) f 4 & ] ) T A A K H I =.Q R 0 u m u.I 3 O y #X}.b.A H H ",
"d A U y d A ] r.<.d = f Q P.a = .  .f. .t.8.u 4 , [ / I D z h H I R R H 3 A  .5.S & . 5 +X~.s.A L [ ",
"2 n w.3 3 i U T I D z I U U z d 4 A U  .T U I T  .w._ H H.=.5 H.I.S Y Y   t j...N 4 $ 8 2.n.!.T / [ ",
"5 n T u f H U T Y L z 5 n T K h 5 m T h.w.0.o.I H o.7.,.Q L i [ 7.V I I S  .n.w.H p $ 8 m. .T 0.Y H ",
"y i S H R E U U ! L D + u  .H h 0 N .._.s.i.P.I i ! S.L.L A G Q ~ U N I R.Q.Q.L.P j & e '.N u 8.I n ",
"2 u H I I U I I I A d % A w.R h 3 t.[.|.w.T 7.0.1.Q S.U.H Q ^.7.7.I.] Y U ) S.L z j @ t $XT d ` ! ! ",
"e u A H I U I R Y D d % f 7.L z 9 ! k.[.w.I T I H R W Z.H H R <.y.E.7.Y ) ] ] d d j b T @XI 8 ` I H ",
"i u y H H I H L W K g + d =.A h s A I z._ I N i y L L G D d = [ Y.^.0.T J.D.) = 3 d k._.].S 5 Q S r ",
"[ z $ h K L D K Q L A + 5 m I h 9 + 8 ].c.i.0.y O k L ;.f 5 & f A 7 n J ] Q H d 0 2 j.]..Xb & P H A ",
"<.z + h D D d d Q L A % 5 n I A a $ 8 _.B.b.0.y O h K R w w i I U b S G ` L D 0 0 y j.'. Xu & L A f ",
"[ i @ A z 0 + & ] D d = 5 n H L z a f ) n._.Y y 1 K z d 9 D oX_._.Q./ H ` L k = 5 L T.!.Q.5 + H f 8 ",
"H D d n i 0 9 a Q L D 0 D / Y Q =.d d Q T.R.S y 3 K K D 9 D !.c.l.o.A f ! H k d d a ) 8.[ &.%.S G L ",
"H H L H n 0 0 d Y H D k L i.Y ! Z.d d h Y.!.A d 5 L L L 0 z n.l.u.o.H D I H A K h 4 Y Q A *.=.S L R ",
"Y ) 8.O.H 0 & , V f d K ` r.S H Q w =   l.+XJ H L Z.V.=.0 f  .f.n.t.Y.E.f L =.P z 3 I J < 5 d R H H ",
"I ! @.` L g 4 d I.I A P [ D.[ / ) d 4 . w.|.1.Q L F.W D a A 5.f.f.O.T.Y.d A W P D f ] R o A / Y T ~ ",
"H Q @.P K K a j ^.! S P Q Z.S.7.0.k 9 . o.}.s./ H I.Q h a D 5.j.j.r.T.W.d D Q L L D 7.R o Y h.U o.O.",
"S Q F.5 5 H 0 4 4 A H i D L R ! >.K a . ..).$.S u /.L.H 4 a H Q.OXXX!.i.=.K i L D k I I f 8.Y.` H A ",
"Q [ <.5 w L a 3 + f R 3 d L A G L h 0   U (.z.I u D L [ a 5 4 z.|..X!.i.D G H D z d R Y A ) y.) S u ",
"H.,.R 0 a L d 3   f ! + 5 A u f z d 4   I (.M.! f   5 J.k 3 . 8. X|.!.F.y S ) K l p R ` A Y _ 0.A 5 ",
"S I [ 4 0 =.D d = D Q %.a & Y Y z f w   o.{.0.L a   5 H.L h % 0.!.T.t.) e H S.K g 9 u b r Y <.! i 3 ",
"H H H 4 q R D g - A / K w & i.) A A f X U l.) D 0   5 H.L h - H 1.b.t.0.n S H z d 5 I I r I [ _ n 5 ",
"Y S 8 5 y I z d : H o.i 2 & Y.t.b L A > t N / f 4   5 L.G d 9 4 u h.s.i.V t 1 d d y T.Y.r H Q 4.N e ",
"H I Q S A Q D d - S ~ G Q #.[ Q H ] R d D L 1.D 9 * d ! G d $ = d m.l.i.i.A , K h 5 Q ] S ) 7.Y S i ",
"t H Z.I H L D g = D ! H @.R.G G H [ R d K P i.D 0 = d Y D d = ; d _.l.w.I.I e =.D , H Q G 7.r.H A A ",
"@ 8 Y Q H t z d = h Q H  .f.1 1 n S A 3 i Y Y.P 0 O 5 R g a p 9 h m.b.s.l.y.D.F.D . n H h i.Y.U H G ",
"y z P Q H y z d + H J.L H H H H G ) Q k H Y 8.H d 4 z 7.z g k a h 3.b.Q.[ / T [ H 5 5.l.P S b b f d ",
"D D K Q H y h d X I Y.R A f ~ Q D 7.@.A R ! 0.H f d L y.D h K g h >.M.!.L I T Q H A _._.P u 8 i d d ",
"I H D Q H 6 8 3   f 8.L H S U A 3 Y _ m I Q H.Z.=.d A ! m m K K J 6.B.Q.2 N c.0. .T l.w.A R [ Z./ I ",
"! H d L H i y 8 , n T L R L L z 4 I ) I I R i.[ L k A S I H h h H g.z.y.y H i.w.o.Q w.0.D H H ! Q Q ",
"<.H 5 S S S i u i m V R Q =.K h 4 I ) Q L R w.! H K D b Q R f f S f.w.~ f H _ w.0.R 0.) G S S I Q ! "
};
